<?xml version="1.0" standalone="no"?>
<!DOCTYPE svg PUBLIC "-//W3C//DTD SVG 20010904//EN"
 "http://www.w3.org/TR/2001/REC-SVG-20010904/DTD/svg10.dtd">
<svg version="1.0" xmlns="http://www.w3.org/2000/svg"
 width="700.000000pt" height="700.000000pt" viewBox="0 0 700.000000 700.000000"
 preserveAspectRatio="xMidYMid meet">
<metadata>
Created by potrace 1.14, written by Peter Selinger 2001-2017
</metadata>
<g transform="translate(0.000000,700.000000) scale(0.100000,-0.100000)"
fill="#000000" stroke="none">
<path d="M0 3500 l0 -3500 3500 0 3500 0 0 3500 0 3500 -3500 0 -3500 0 0
-3500z m3774 2342 l187 -314 -100 -171 c-55 -95 -588 -1002 -1184 -2017
l-1083 -1845 271 -3 c254 -2 271 -1 285 16 8 10 474 821 1035 1800 560 980
1023 1778 1027 1774 4 -4 572 -955 1262 -2112 l1255 -2105 -587 -7 c-895 -11
-2916 -27 -2919 -24 -2 2 60 154 138 338 l141 336 1020 7 c867 6 1018 10 1014
21 -11 28 -1311 2204 -1317 2204 -3 0 -380 -654 -838 -1454 l-833 -1454 -131
-6 c-258 -11 -2010 -19 -2006 -8 2 5 712 1216 1578 2691 1351 2301 1576 2679
1586 2664 7 -10 96 -159 199 -331z"/>
</g>
</svg>
