<svg width="241" height="54" viewBox="0 0 241 54" fill="none" xmlns="http://www.w3.org/2000/svg">
<g clip-path="url(#clip0_7820_123)">
<path fill-rule="evenodd" clip-rule="evenodd" d="M22.919 48.4L51.538 48.148L30.983 12.958L14.191 42.888L9.67101 42.928L28.976 9.36201L25.747 3.83501L0 48.6L17.439 48.447L31.08 24.136L41.89 42.644L25.241 42.79L22.919 48.4ZM67.676 53.989L36.367 0.22501L36.737 0.00601196L68.047 53.769L67.676 53.989ZM70.484 20.811V20.759C70.5019 18.2484 71.5101 15.8463 73.2893 14.0749C75.0686 12.3035 77.4751 11.306 79.9857 11.2991C82.4964 11.2923 84.9084 12.2767 86.6972 14.0383C88.4861 15.8 89.5074 18.1965 89.539 20.707V20.759C89.5211 23.2696 88.5129 25.6717 86.7337 27.4431C84.9544 29.2145 82.5479 30.212 80.0372 30.2189C77.5266 30.2257 75.1147 29.2414 73.3258 27.4797C71.5369 25.718 70.5157 23.3215 70.484 20.811ZM84.535 20.811V20.759C84.5673 20.1358 84.4743 19.5125 84.2617 18.9258C84.0491 18.3391 83.7211 17.8009 83.2971 17.343C82.8731 16.8852 82.3616 16.5169 81.7929 16.26C81.2243 16.003 80.6098 15.8626 79.986 15.847C79.3695 15.8605 78.762 15.9984 78.2 16.2523C77.6381 16.5062 77.1331 16.8709 76.7155 17.3246C76.2978 17.7783 75.976 18.3117 75.7694 18.8927C75.5628 19.4737 75.4756 20.0905 75.513 20.706V20.758C75.4801 21.3793 75.5717 22.001 75.7825 22.5863C75.9934 23.1717 76.3191 23.709 76.7406 24.1667C77.1621 24.6244 77.6709 24.9931 78.237 25.2513C78.8031 25.5095 79.4151 25.6518 80.037 25.67C80.6555 25.6592 81.2654 25.5235 81.83 25.2709C82.3947 25.0182 82.9024 24.654 83.3226 24.2001C83.7428 23.7461 84.0668 23.2119 84.2752 22.6295C84.4835 22.047 84.5719 21.4285 84.535 20.811ZM94.624 11.664H99.2L106.478 21.279V11.664H111.33V29.854H107.03L99.474 19.875V29.854H94.622V11.664H94.624ZM121.315 16.082H116.008V11.664H131.525V16.082H126.218V29.854H121.318V16.081L121.315 16.082ZM136.305 11.664H141.234V29.854H136.305V11.664ZM146.391 20.811V20.759C146.358 19.5192 146.576 18.2856 147.031 17.132C147.487 15.9783 148.17 14.9285 149.041 14.0453C149.911 13.1621 150.951 12.4637 152.098 11.992C153.245 11.5203 154.476 11.2849 155.716 11.3C157.187 11.2358 158.651 11.551 159.965 12.2154C161.28 12.8798 162.401 13.8711 163.222 15.094L159.532 18.03C159.111 17.3854 158.539 16.854 157.865 16.4824C157.191 16.1108 156.436 15.9105 155.666 15.899C153.19 15.899 151.446 18.056 151.446 20.706V20.758C151.446 23.487 153.19 25.618 155.666 25.618C156.463 25.6101 157.245 25.404 157.942 25.0184C158.639 24.6327 159.229 24.0796 159.659 23.409L163.349 26.109C162.517 27.4201 161.356 28.4895 159.981 29.2102C158.606 29.9308 157.065 30.2773 155.514 30.215C154.292 30.2171 153.081 29.9732 151.955 29.4978C150.829 29.0224 149.809 28.3252 148.958 27.4477C148.107 26.5703 147.441 25.5305 147 24.3903C146.559 23.2502 146.352 22.0329 146.391 20.811ZM167.977 11.664H182.206V15.952H172.83V18.706H181.321V22.682H172.83V25.567H182.33V29.855H167.977V11.664ZM187.365 11.664H192.265V25.437H200.832V29.855H187.362V11.664H187.365ZM205.465 11.664H210.365V25.437H218.933V29.855H205.463V11.664H205.465ZM221.946 20.811V20.759C221.975 18.2557 222.988 15.8643 224.766 14.1018C226.544 12.3393 228.944 11.3475 231.447 11.3406C233.951 11.3338 236.356 12.3125 238.144 14.0653C239.932 15.818 240.958 18.2039 241 20.707V20.759C240.982 23.2696 239.974 25.6717 238.195 27.4431C236.415 29.2145 234.009 30.212 231.498 30.2189C228.988 30.2257 226.576 29.2414 224.787 27.4797C222.998 25.718 221.977 23.3215 221.945 20.811H221.946ZM235.997 20.811V20.759C236.029 20.1358 235.936 19.5125 235.724 18.9258C235.511 18.3391 235.183 17.8009 234.759 17.343C234.335 16.8852 233.824 16.5169 233.255 16.26C232.686 16.003 232.072 15.8626 231.448 15.847C230.831 15.8605 230.224 15.9984 229.662 16.2523C229.1 16.5062 228.595 16.8709 228.177 17.3246C227.76 17.7783 227.438 18.3117 227.231 18.8927C227.025 19.4737 226.938 20.0905 226.975 20.706V20.758C226.942 21.3793 227.034 22.001 227.245 22.5863C227.455 23.1717 227.781 23.709 228.203 24.1667C228.624 24.6244 229.133 24.9931 229.699 25.2513C230.265 25.5095 230.877 25.6518 231.499 25.67C232.118 25.6596 232.728 25.5242 233.293 25.2717C233.858 25.0193 234.366 24.6551 234.787 24.2011C235.207 23.7472 235.531 23.2128 235.74 22.6302C235.948 22.0475 236.037 21.4287 236 20.811H235.997ZM51.424 25.482V19.459L55.924 26.528H56.024L60.548 19.407V29.854H65.425V11.664H60.244L56.024 18.706L51.804 11.664H46.623V17.238L51.424 25.482ZM71.494 39.707H72.172V45.768H71.494V39.707ZM77.369 39.707H78.005L81.791 44.564V39.707H82.452V45.768H81.911L78.03 40.8V45.77H77.369V39.707ZM89.18 40.338H87.162V39.707H91.884V40.338H89.866V45.767H89.18V40.338ZM96.594 39.707H100.939V40.33H97.273V42.4H100.552V43.023H97.273V45.144H100.981V45.768H96.594V39.707ZM105.785 39.707H108.37C108.681 39.6904 108.991 39.7354 109.285 39.8394C109.578 39.9434 109.847 40.1043 110.078 40.313C110.383 40.6346 110.55 41.0636 110.541 41.507V41.524C110.542 41.9697 110.375 42.3993 110.072 42.7268C109.77 43.0543 109.355 43.2555 108.911 43.29L110.756 45.767H109.923L108.181 43.412H106.464V45.767H105.785V39.707ZM108.309 42.798C108.494 42.8277 108.683 42.8183 108.864 42.7702C109.045 42.7222 109.213 42.6366 109.359 42.5191C109.505 42.4016 109.624 42.2548 109.709 42.0882C109.795 41.9216 109.844 41.7389 109.854 41.552V41.533C109.846 41.3478 109.799 41.1664 109.714 41.0014C109.629 40.8365 109.51 40.692 109.363 40.5778C109.217 40.4637 109.048 40.3827 108.868 40.3404C108.687 40.2981 108.5 40.2956 108.318 40.333H106.464V42.8H108.309V42.798ZM115.432 39.707H116.068L119.854 44.564V39.707H120.515V45.768H119.974L116.093 40.798V45.768H115.432V39.707ZM127.878 39.663H128.513L131.252 45.763H130.522L129.822 44.163H126.551L125.838 45.763H125.143L127.878 39.663ZM129.552 43.551L128.187 40.459L126.813 43.551H129.552ZM136.692 40.338H134.674V39.707H139.4V40.338H137.382V45.767H136.696V40.338H136.692ZM144.167 39.707H144.844V45.768H144.167V39.707ZM149.776 42.754V42.737C149.764 42.328 149.835 41.9208 149.983 41.5394C150.131 41.158 150.354 40.8102 150.639 40.5164C150.924 40.2226 151.265 39.9887 151.641 39.8286C152.018 39.6685 152.423 39.5854 152.832 39.5842C153.241 39.583 153.646 39.6638 154.024 39.8216C154.401 39.9795 154.743 40.2113 155.03 40.5035C155.316 40.7956 155.541 41.1422 155.692 41.5227C155.842 41.9032 155.915 42.3099 155.906 42.719V42.737C155.918 43.146 155.847 43.5532 155.699 43.9346C155.55 44.316 155.327 44.6638 155.042 44.9575C154.758 45.2513 154.417 45.4851 154.04 45.6451C153.664 45.8052 153.259 45.8882 152.85 45.8893C152.441 45.8905 152.035 45.8097 151.658 45.6518C151.28 45.4938 150.938 45.2619 150.652 44.9697C150.365 44.6775 150.14 44.331 149.99 43.9504C149.839 43.5699 149.767 43.1631 149.776 42.754ZM155.202 42.754V42.737C155.215 42.416 155.164 42.0956 155.052 41.7948C154.939 41.494 154.767 41.2188 154.546 40.9857C154.325 40.7525 154.059 40.5661 153.765 40.4375C153.47 40.3089 153.153 40.2407 152.832 40.237C152.512 40.2393 152.197 40.3062 151.904 40.4336C151.611 40.561 151.346 40.7463 151.127 40.9784C150.907 41.2105 150.736 41.4846 150.625 41.7842C150.514 42.0838 150.465 42.4028 150.48 42.722V42.74C150.467 43.061 150.518 43.3814 150.63 43.6822C150.743 43.9831 150.915 44.2582 151.136 44.4913C151.357 44.7245 151.623 44.9109 151.917 45.0395C152.212 45.1681 152.529 45.2363 152.85 45.24C153.169 45.2374 153.485 45.1703 153.778 45.0427C154.071 44.9151 154.335 44.7297 154.554 44.4975C154.774 44.2654 154.944 43.9913 155.055 43.6917C155.166 43.392 155.215 43.0731 155.2 42.754H155.202ZM160.779 39.707H161.415L165.201 44.564V39.707H165.862V45.768H165.321L161.44 40.8V45.77H160.779V39.707ZM173.225 39.663H173.861L176.599 45.763H175.87L175.17 44.163H171.9L171.187 45.763H170.492L173.225 39.663ZM174.9 43.551L173.534 40.459L172.161 43.551H174.9ZM181.224 39.707H181.9V45.135H185.282V45.768H181.221V39.707H181.224ZM195.724 42.754V42.737C195.71 42.3318 195.777 41.9279 195.922 41.5492C196.067 41.1705 196.287 40.8247 196.568 40.5324C196.849 40.24 197.185 40.007 197.558 39.8472C197.931 39.6874 198.332 39.604 198.737 39.602C199.56 39.5669 200.365 39.8563 200.977 40.408L200.54 40.927C200.296 40.6971 200.009 40.5176 199.695 40.3988C199.381 40.2801 199.047 40.2244 198.712 40.235C198.398 40.2444 198.088 40.3166 197.802 40.4473C197.516 40.5781 197.259 40.7647 197.046 40.9962C196.833 41.2278 196.669 41.4995 196.562 41.7956C196.456 42.0916 196.41 42.4059 196.427 42.72V42.738C196.401 43.0635 196.444 43.3909 196.552 43.6989C196.661 44.0069 196.833 44.2887 197.057 44.5262C197.281 44.7636 197.553 44.9513 197.854 45.0772C198.155 45.2031 198.48 45.2643 198.806 45.257C199.435 45.2544 200.046 45.0411 200.54 44.651V43.143H198.712V42.529H201.192V44.944C200.529 45.539 199.67 45.8687 198.779 45.87C198.369 45.8838 197.96 45.8121 197.58 45.6596C197.199 45.507 196.854 45.2769 196.566 44.9839C196.279 44.6908 196.056 44.3413 195.911 43.9574C195.766 43.5735 195.703 43.1637 195.725 42.754H195.724ZM206.16 39.707H208.745C209.056 39.6904 209.366 39.7354 209.66 39.8394C209.953 39.9434 210.222 40.1043 210.453 40.313C210.759 40.6342 210.926 41.0634 210.917 41.507V41.524C210.918 41.9698 210.751 42.3996 210.448 42.7271C210.146 43.0546 209.731 43.2557 209.286 43.29L211.131 45.767H210.3L208.558 43.412H206.84V45.767H206.161V39.707H206.16ZM208.684 42.798C208.869 42.8277 209.058 42.8182 209.239 42.7702C209.42 42.7222 209.589 42.6366 209.734 42.5192C209.88 42.4017 210 42.2549 210.085 42.0883C210.17 41.9216 210.22 41.7389 210.23 41.552V41.533C210.222 41.3477 210.174 41.1663 210.089 41.0014C210.005 40.8365 209.885 40.6919 209.739 40.5778C209.593 40.4637 209.423 40.3827 209.243 40.3404C209.062 40.2981 208.875 40.2956 208.693 40.333H206.84V42.8H208.685L208.684 42.798ZM215.541 42.754V42.737C215.533 42.33 215.605 41.9254 215.755 41.5468C215.905 41.1682 216.128 40.8232 216.413 40.5319C216.697 40.2407 217.037 40.009 217.411 39.8504C217.786 39.6919 218.189 39.6096 218.596 39.6084C219.003 39.6072 219.407 39.6871 219.783 39.8435C220.158 39.9998 220.499 40.2295 220.786 40.5191C221.072 40.8087 221.297 41.1523 221.449 41.5301C221.601 41.9078 221.676 42.312 221.67 42.719V42.737C221.682 43.1459 221.611 43.553 221.463 43.9342C221.315 44.3154 221.091 44.6631 220.807 44.9568C220.522 45.2505 220.181 45.4842 219.805 45.6442C219.428 45.8042 219.024 45.8872 218.615 45.8883C218.206 45.8895 217.801 45.8087 217.423 45.6508C217.046 45.4929 216.704 45.2611 216.418 44.969C216.131 44.6769 215.906 44.3304 215.756 43.95C215.605 43.5696 215.533 43.163 215.542 42.754H215.541ZM220.966 42.754V42.737C220.979 42.4161 220.928 42.0958 220.816 41.795C220.703 41.4943 220.531 41.2192 220.31 40.986C220.089 40.7529 219.824 40.5665 219.53 40.4378C219.235 40.3092 218.918 40.2409 218.597 40.237C218.277 40.2392 217.961 40.306 217.668 40.4333C217.375 40.5607 217.111 40.746 216.891 40.9781C216.671 41.2102 216.501 41.4843 216.389 41.784C216.278 42.0837 216.229 42.4027 216.244 42.722V42.74C216.231 43.061 216.282 43.3814 216.394 43.6822C216.507 43.9831 216.679 44.2582 216.9 44.4913C217.121 44.7245 217.387 44.9109 217.681 45.0395C217.976 45.1681 218.293 45.2363 218.614 45.24C218.934 45.2378 219.25 45.171 219.543 45.0436C219.836 44.9162 220.101 44.7308 220.32 44.4986C220.54 44.2664 220.711 43.9922 220.822 43.6923C220.933 43.3925 220.982 43.0734 220.967 42.754H220.966ZM226.45 43.23V39.707H227.128V43.187C227.088 43.4468 227.107 43.7121 227.182 43.9639C227.257 44.2156 227.388 44.4476 227.563 44.643C227.739 44.8384 227.956 44.9924 228.198 45.0939C228.441 45.1954 228.702 45.2419 228.965 45.23C229.223 45.2444 229.481 45.2009 229.721 45.1027C229.96 45.0044 230.174 44.854 230.348 44.6623C230.522 44.4706 230.65 44.2425 230.725 43.9947C230.799 43.7469 230.817 43.4856 230.777 43.23V39.707H231.455V43.179C231.48 43.5205 231.435 43.8634 231.322 44.1867C231.209 44.51 231.031 44.8067 230.799 45.0587C230.568 45.3106 230.287 45.5124 229.974 45.6516C229.661 45.7908 229.323 45.8644 228.981 45.868C228.638 45.8715 228.299 45.8049 227.983 45.6723C227.668 45.5396 227.382 45.3437 227.145 45.0966C226.908 44.8496 226.725 44.5566 226.605 44.2357C226.486 43.9149 226.433 43.5729 226.451 43.231L226.45 43.23ZM236.5 39.707H238.75C239.027 39.6657 239.31 39.6843 239.58 39.7617C239.85 39.8391 240.1 39.9734 240.313 40.1555C240.526 40.3377 240.698 40.5635 240.816 40.8177C240.935 41.0719 240.997 41.3485 241 41.629V41.646C240.989 41.9364 240.918 42.2213 240.791 42.4824C240.663 42.7435 240.482 42.9749 240.26 43.1618C240.037 43.3486 239.778 43.4868 239.499 43.5673C239.22 43.6477 238.927 43.6688 238.639 43.629H237.18V45.768H236.5V39.707ZM238.664 43.007C238.861 43.0379 239.063 43.0271 239.256 42.9752C239.449 42.9234 239.629 42.8316 239.784 42.7059C239.94 42.5802 240.067 42.4234 240.158 42.2454C240.249 42.0675 240.301 41.8725 240.312 41.673V41.655C240.309 41.4567 240.262 41.2615 240.176 41.083C240.089 40.9046 239.965 40.7472 239.811 40.6219C239.657 40.4965 239.478 40.4063 239.286 40.3574C239.093 40.3086 238.893 40.3023 238.698 40.339H237.18V43H238.665L238.664 43.007Z" fill="white"/>
</g>
<defs>
<clipPath id="clip0_7820_123">
<rect width="241" height="54" fill="white"/>
</clipPath>
</defs>
</svg>
