<svg width="241" height="54" fill="none" xmlns="http://www.w3.org/2000/svg"><g clip-path="url(#clip0_7820_123)"><path fill-rule="evenodd" clip-rule="evenodd" d="M22.919 48.4l28.619-.252-20.555-35.19-16.792 29.93-4.52.04L28.976 9.362l-3.229-5.527L0 48.6l17.439-.153L31.08 24.136l10.81 18.508-16.649.146-2.322 5.61zm44.757 5.589L36.367.225l.37-.219 31.31 53.763-.371.22zm2.808-33.178v-.052a9.528 9.528 0 0119.055-.052v.052a9.528 9.528 0 01-19.055.052zm14.051 0v-.052a4.671 4.671 0 00-4.549-4.912 4.582 4.582 0 00-4.473 4.859v.052a4.668 4.668 0 004.524 4.912 4.586 4.586 0 004.498-4.859zm10.089-9.147H99.2l7.278 9.615v-9.615h4.852v18.19h-4.3l-7.556-9.979v9.979h-4.852v-18.19h.002zm26.691 4.418h-5.307v-4.418h15.517v4.418h-5.307v13.772h-4.9V16.081l-.003.001zm14.99-4.418h4.929v18.19h-4.929v-18.19zm10.086 9.147v-.052a9.217 9.217 0 019.325-9.459 8.589 8.589 0 017.506 3.794l-3.69 2.936a4.703 4.703 0 00-3.866-2.131c-2.476 0-4.22 2.157-4.22 4.807v.052c0 2.729 1.744 4.86 4.22 4.86a4.8 4.8 0 003.993-2.209l3.69 2.7a8.86 8.86 0 01-7.835 4.106 9.112 9.112 0 01-9.123-9.404zm21.586-9.147h14.229v4.288h-9.376v2.754h8.491v3.976h-8.491v2.885h9.5v4.288h-14.353V11.664zm19.388 0h4.9v13.773h8.567v4.418h-13.47V11.664h.003zm18.1 0h4.9v13.773h8.568v4.418h-13.47V11.664h.002zm16.481 9.147v-.052A9.53 9.53 0 01241 20.707v.052a9.529 9.529 0 01-19.055.052h.001zm14.051 0v-.052a4.68 4.68 0 00-2.742-4.499 4.672 4.672 0 00-1.807-.413 4.58 4.58 0 00-4.473 4.859v.052a4.662 4.662 0 001.228 3.409 4.661 4.661 0 003.296 1.503A4.585 4.585 0 00236 20.811h-.003zM51.424 25.482v-6.023l4.5 7.069h.1l4.524-7.121v10.447h4.877v-18.19h-5.181l-4.22 7.042-4.22-7.042h-5.181v5.574l4.801 8.244zm20.07 14.225h.678v6.061h-.678v-6.061zm5.875 0h.636l3.786 4.857v-4.857h.661v6.061h-.541L78.03 40.8v4.97h-.661v-6.063zm11.811.631h-2.018v-.631h4.722v.631h-2.018v5.429h-.686v-5.429zm7.414-.631h4.345v.623h-3.666v2.07h3.279v.623h-3.279v2.121h3.708v.624h-4.387v-6.061zm9.191 0h2.585a2.362 2.362 0 011.708.606c.305.322.472.75.463 1.194v.017a1.764 1.764 0 01-1.63 1.766l1.845 2.477h-.833l-1.742-2.355h-1.717v2.355h-.679v-6.06zm2.524 3.091a1.336 1.336 0 001.545-1.246v-.019a1.28 1.28 0 00-1.536-1.2h-1.854V42.8h1.845v-.002zm7.123-3.091h.636l3.786 4.857v-4.857h.661v6.061h-.541l-3.881-4.97v4.97h-.661v-6.061zm12.446-.044h.635l2.739 6.1h-.73l-.7-1.6h-3.271l-.713 1.6h-.695l2.735-6.1zm1.674 3.888l-1.365-3.092-1.374 3.092h2.739zm7.14-3.213h-2.018v-.631h4.726v.631h-2.018v5.429h-.686v-5.429h-.004zm7.475-.631h.677v6.061h-.677v-6.061zm5.609 3.047v-.017a3.063 3.063 0 013.056-3.153 3.07 3.07 0 012.86 1.939c.15.38.223.787.214 1.196v.018a3.063 3.063 0 01-3.056 3.152 3.065 3.065 0 01-3.074-3.135zm5.426 0v-.017a2.405 2.405 0 00-2.37-2.5 2.368 2.368 0 00-1.705.741 2.367 2.367 0 00-.647 1.744v.018a2.404 2.404 0 002.37 2.5 2.374 2.374 0 002.35-2.486h.002zm5.577-3.047h.636l3.786 4.857v-4.857h.661v6.061h-.541L161.44 40.8v4.97h-.661v-6.063zm12.446-.044h.636l2.738 6.1h-.729l-.7-1.6h-3.27l-.713 1.6h-.695l2.733-6.1zm1.675 3.888l-1.366-3.092-1.373 3.092h2.739zm6.324-3.844h.676v5.428h3.382v.633h-4.061v-6.061h.003zm14.5 3.047v-.017a3.029 3.029 0 013.013-3.135 3.146 3.146 0 012.24.806l-.437.519a2.545 2.545 0 00-1.828-.692 2.361 2.361 0 00-2.285 2.485v.018a2.341 2.341 0 00.63 1.788 2.335 2.335 0 001.749.731 2.818 2.818 0 001.734-.606v-1.508h-1.828v-.614h2.48v2.415a3.62 3.62 0 01-2.413.926 2.955 2.955 0 01-2.213-.886 2.964 2.964 0 01-.841-2.23h-.001zm10.436-3.047h2.585a2.362 2.362 0 011.708.606c.306.321.473.75.464 1.194v.017a1.765 1.765 0 01-1.631 1.766l1.845 2.477h-.831l-1.742-2.355h-1.718v2.355h-.679v-6.06h-.001zm2.524 3.091a1.338 1.338 0 001.546-1.246v-.019a1.28 1.28 0 00-1.537-1.2h-1.853V42.8h1.845l-.001-.002zm6.857-.044v-.017a3.067 3.067 0 015.245-2.218 3.067 3.067 0 01.884 2.2v.018a3.06 3.06 0 01-1.865 2.907 3.065 3.065 0 01-4.263-2.89h-.001zm5.425 0v-.017a2.407 2.407 0 00-2.369-2.5 2.372 2.372 0 00-2.353 2.485v.018a2.404 2.404 0 002.37 2.5 2.37 2.37 0 002.353-2.486h-.001zm5.484.476v-3.523h.678v3.48a1.775 1.775 0 001.837 2.043 1.74 1.74 0 001.76-1.235c.074-.248.092-.51.052-.765v-3.523h.678v3.472a2.5 2.5 0 01-.656 1.88 2.495 2.495 0 01-1.818.809 2.51 2.51 0 01-2.376-1.632 2.51 2.51 0 01-.154-1.005l-.001-.001zm10.05-3.523h2.25a1.962 1.962 0 012.25 1.922v.017c-.011.29-.082.575-.209.836a2.092 2.092 0 01-1.292 1.085c-.279.08-.572.102-.86.062h-1.459v2.139h-.68v-6.061zm2.164 3.3a1.429 1.429 0 001.648-1.334v-.018a1.366 1.366 0 00-.501-1.033 1.365 1.365 0 00-1.113-.283h-1.518V43h1.485l-.001.007z" fill="#fff"/></g><defs><clipPath id="clip0_7820_123"><path fill="#fff" d="M0 0h241v54H0z"/></clipPath></defs></svg>